<?xml version="1.0" standalone="no"?><!DOCTYPE svg PUBLIC "-//W3C//DTD SVG 1.1//EN" "http://www.w3.org/Graphics/SVG/1.1/DTD/svg11.dtd"><svg class="icon" width="200px" height="200.00px" viewBox="0 0 1024 1024" version="1.1" xmlns="http://www.w3.org/2000/svg"><path fill="#8a8a8a" d="M523.52 936.32A384 384 0 0 1 352 208a32 32 0 0 1 44.16 16 32 32 0 0 1-14.4 42.56 320 320 0 1 0 283.52 0A32 32 0 0 1 650.56 224a32 32 0 0 1 42.88-14.72 384 384 0 0 1-169.92 728.32zM523.52 545.92a32 32 0 0 1-32-32v-384a32 32 0 1 1 64 0v384a32 32 0 0 1-32 32z" /></svg>