<?xml version="1.0" encoding="utf-8"?>
<!-- Generator: Adobe Illustrator 23.1.0, SVG Export Plug-In . SVG Version: 6.00 Build 0)  -->
<svg version="1.1" id="图层_1" xmlns="http://www.w3.org/2000/svg" xmlns:xlink="http://www.w3.org/1999/xlink" x="0px" y="0px"
	 viewBox="0 0 750 750" style="enable-background:new 0 0 750 750;" xml:space="preserve">
<style type="text/css">
	.st0{opacity:0.1;fill:#B3B3B3;}
	.st1{opacity:0.3;fill:#B3B3B3;}
	.st2{opacity:0.1;}
	.st3{fill:#B3B3B3;}
	.st4{opacity:0.35;fill:url(#SVGID_1_);}
	.st5{opacity:0.35;fill:#B3B3B3;}
</style>
<g>
	<g>
		<path class="st0" d="M462.1,236.8L462.1,236.8C384.8,236.2,321,295.1,314,370.7c-18.5-19.1-44.4-31.1-73.1-31.3h0
			c-56.8-0.4-103.2,45.3-103.6,102.1l-0.8,101.4l175.6,1.3l30.1,0.2l265.1,2l1.2-160.9C609.2,304,543.6,237.4,462.1,236.8z"/>
		<path class="st1" d="M216.9,227.4c-3.4,0-6.5,1.1-9,2.9c0.2-1,0.3-2,0.3-3c0.1-8.3-6.6-15.1-15-15.2s-15.1,6.6-15.2,15
			c0,0.3,0,0.6,0,0.9c-1.6-0.6-3.4-1-5.2-1c-8.3-0.1-15.1,6.6-15.2,15c-0.1,8.2,6.4,14.9,14.5,15.2l0,0l44.6,0.3
			c8.3,0.1,15.1-6.6,15.2-15S225.2,227.5,216.9,227.4z"/>
		<path class="st1" d="M596.4,194.2c-3.4,0-6.5,1.1-9,2.9c0.2-1,0.3-2,0.3-3c0.1-8.3-6.6-15.1-15-15.2s-15.1,6.6-15.2,15
			c0,0.3,0,0.6,0,0.9c-1.6-0.6-3.4-1-5.2-1c-8.3-0.1-15.1,6.6-15.2,15c-0.1,8.2,6.4,14.9,14.5,15.2l0,0l44.6,0.3
			c8.3,0.1,15.1-6.6,15.2-15S604.7,194.3,596.4,194.2z"/>
		<g>
			<g class="st2">
				<path class="st3" d="M496.9,497.5c-2.1,0-3.7,1.6-3.7,3.7c0,1.5,0.8,2.7,2,3.3l-0.5,65.1l3.5,0l0.5-65.3
					c1.1-0.6,1.8-1.8,1.8-3.1C500.6,499.1,499,497.6,496.9,497.5z"/>
				<path class="st3" d="M572.3,501.7c0-1.9-1.6-3.6-3.7-3.7c-2.1,0-3.7,1.6-3.7,3.7c0,1.4,0.8,2.6,1.9,3.2l-0.5,65.2l3.5,0
					l0.5-65.2C571.5,504.3,572.2,503.1,572.3,501.7z"/>
			</g>
			
				<rect x="522.7" y="472.2" transform="matrix(7.448311e-03 -1 1 7.448311e-03 8.6828 1045.4733)" class="st0" width="16.5" height="92.3"/>
			<polygon class="st0" points="495.4,509.8 495.2,510.1 485.5,526.3 484.8,526.3 484.9,509.8 			"/>
			<polygon class="st0" points="518.7,510 508.8,526.5 496.3,526.4 500.2,519.8 506,509.9 			"/>
			<polygon class="st0" points="542,510.2 532.1,526.6 519.6,526.5 529.3,510.1 			"/>
			<polygon class="st0" points="565.3,510.4 555.5,526.8 542.9,526.7 552.7,510.3 			"/>
			<polygon class="st0" points="577.2,510.4 577.1,527 566.2,526.9 576,510.4 			"/>
			
				<rect x="522.5" y="497.7" transform="matrix(7.448311e-03 -1 1 7.448311e-03 -17.0149 1070.603)" class="st0" width="16.5" height="92.3"/>
			<polygon class="st0" points="495.2,535.3 495,535.6 485.3,551.8 484.6,551.8 484.7,535.3 			"/>
			<polygon class="st0" points="518.5,535.5 508.6,552 496.1,551.9 500,545.3 505.8,535.4 			"/>
			<polygon class="st0" points="541.8,535.7 531.9,552.1 519.4,552 529.1,535.6 			"/>
			<polygon class="st0" points="565.1,535.9 555.4,552.3 542.7,552.2 552.5,535.8 			"/>
			<polygon class="st0" points="577,536 576.9,552.5 566,552.4 575.8,536 			"/>
			<path class="st0" d="M577.1,527c0,0,0-0.1,0-0.3l0-0.9c0-0.7,0-1.8,0-3.2c0-2.8,0.1-6.9,0.1-12.2l0.1,0.1l-92.3-0.5l0,0l0.1-0.1
				c0,5.6-0.1,11.2-0.1,16.5l-0.1-0.1l65.8,0.6l19.5,0.1l5.3,0l0,0l-5.3,0l-19.5-0.1l-65.8-0.3l-0.3,0l0.1-16.8l0.1,0l92.3,0.8
				l0.1,0l0,0.1c0,5.3-0.1,9.4-0.1,12.2c0,1.5,0,2.5,0,3.2l0,0.7C577.1,526.8,577.1,527,577.1,527z"/>
			<path class="st0" d="M576.9,552.5c0,0,0-0.1,0-0.3l0-0.9c0-0.7,0-1.8,0-3.2c0-2.8,0.1-6.9,0.1-12.2l0.1,0.1l-92.3-0.5l0,0
				l0.1-0.1c0,5.6-0.1,11.2-0.1,16.5l-0.1-0.1l65.8,0.6l19.5,0.1l5.3,0l0,0l-5.3,0l-19.5-0.1l-65.8-0.3l-0.3,0l0.1-16.7l0.1,0
				l92.3,0.8l0.1,0l0,0.1c0,5.3-0.1,9.4-0.1,12.2c0,1.5,0,2.5,0,3.2l0,0.7C576.9,552.3,576.9,552.5,576.9,552.5z"/>
		</g>
	</g>
	<g>
		<linearGradient id="SVGID_1_" gradientUnits="userSpaceOnUse" x1="434.3792" y1="404.7076" x2="434.3792" y2="517.511">
			<stop  offset="0" style="stop-color:#B3B3B3"/>
			<stop  offset="0.75" style="stop-color:#CCCCCC"/>
			<stop  offset="1" style="stop-color:#FFFFFF;stop-opacity:0.5"/>
		</linearGradient>
		<path class="st4" d="M467.6,493.9c-1.7-1.3-2.2-3.7-1.1-5.5l7.5-13c1.1-1.9,3.3-2.6,5.3-1.8l10.6,4.3c1.6-5.3,2.5-10.9,2.5-16.7
			s-0.9-11.4-2.5-16.7l-10.6,4.3c-0.5,0.2-1.1,0.3-1.6,0.3c-1.5,0-2.9-0.8-3.7-2.1l-7.5-13c-1.1-1.9-0.6-4.2,1.1-5.5l9-7
			c-7.7-8.1-17.6-14-28.8-16.7l-1.6,11.3c-0.3,2.1-2.1,3.7-4.3,3.7h-15c-2.1,0-4-1.6-4.3-3.7l-1.6-11.3
			c-11.2,2.7-21.2,8.6-28.8,16.7l9,7c1.7,1.3,2.2,3.7,1.1,5.5l-7.5,13c-0.8,1.4-2.2,2.1-3.7,2.1c-0.5,0-1.1-0.1-1.6-0.3l-10.6-4.3
			c-1.6,5.3-2.5,10.9-2.5,16.7s0.9,11.4,2.5,16.7l10.6-4.3c2-0.8,4.3,0,5.3,1.8l7.5,13c1.1,1.9,0.6,4.2-1.1,5.5l-9,7
			c7.7,8.1,17.6,14,28.8,16.7l1.6-11.3c0.3-2.1,2.1-3.7,4.3-3.7h15c2.1,0,4,1.6,4.3,3.7l1.6,11.3c11.2-2.7,21.2-8.6,28.8-16.7
			L467.6,493.9z M434.4,475.1c-7.7,0-14-6.3-14-14s6.3-14,14-14s14,6.3,14,14S442.1,475.1,434.4,475.1z"/>
		<path class="st5" d="M363.6,455.5l17.2-29.8c2.3-4,7.2-5.8,11.5-4.4c7.6-8.1,17.6-14,28.8-16.6l0.6,4.7c0.6-5.3,1-10.6,1-16.1
			c0-13.2-2-26-5.6-38.1l-24.2,9.8c-1.2,0.5-2.5,0.7-3.7,0.7c-3.4,0-6.7-1.8-8.5-4.9l-17.2-29.8c-2.5-4.2-1.4-9.7,2.5-12.7l20.5-16
			c-17.5-18.6-40.3-32.1-65.9-38.1l-3.6,25.8c-0.7,4.9-4.8,8.5-9.7,8.5H273c-4.9,0-9.1-3.6-9.7-8.5l-3.6-25.8
			c-25.6,6.1-48.4,19.6-65.9,38.2l20.5,16c3.9,3,4.9,8.4,2.5,12.7l-17.2,29.8c-1.8,3.1-5.1,4.9-8.5,4.9c-1.2,0-2.5-0.2-3.7-0.7
			l-24.2-9.8c-3.6,12.1-5.6,24.9-5.6,38.1c0,13.2,2,26,5.6,38.1l24.2-9.8c4.6-1.8,9.8-0.1,12.2,4.2l17.2,29.8
			c2.5,4.2,1.4,9.7-2.5,12.7l-20.5,16c17.5,18.6,40.3,32.1,65.9,38.2l3.6-25.8c0.7-4.9,4.8-8.5,9.7-8.5h34.4c4.9,0,9.1,3.6,9.7,8.5
			l3.6,25.8c25.6-6.1,48.4-19.6,65.9-38.1l-20.5-16C362.2,465.2,361.1,459.8,363.6,455.5z M290.1,425.2c-17.6,0-31.9-14.3-31.9-31.9
			c0-17.6,14.3-31.9,31.9-31.9c17.6,0,31.9,14.3,31.9,31.9C322.1,410.9,307.7,425.2,290.1,425.2z"/>
	</g>
</g>
</svg>
